<svg width="45" height="45" viewBox="0 0 45 45" fill="none" xmlns="http://www.w3.org/2000/svg">
<path d="M37.6466 9.5498C35.3563 9.5498 33.487 11.4119 33.487 13.6933C33.487 15.6225 34.8005 17.2665 36.6698 17.7026V18.4239H29.3779C28.839 18.4239 28.4012 18.8601 28.4012 19.3969V20.957H23.3491V17.7026C25.2015 17.2665 26.5319 15.6057 26.5319 13.6933C26.5319 11.4119 24.6626 9.5498 22.3723 9.5498C20.082 9.5498 18.2296 11.4119 18.2296 13.6933C18.2296 15.6225 19.5431 17.2665 21.4124 17.7026V20.957H16.3603V19.3801C16.3603 18.8433 15.9224 18.4072 15.3835 18.4072H8.09165V17.7026C9.9441 17.2665 11.2745 15.6057 11.2745 13.6933C11.2745 11.4119 9.4052 9.5498 7.13175 9.5498C4.85829 9.5498 2.97217 11.4119 2.97217 13.6933C2.97217 15.6057 4.28572 17.2665 6.155 17.7026V19.3801C6.155 19.917 6.59285 20.3531 7.13175 20.3531H14.4236V20.957H11.5776C11.0387 20.957 10.6009 21.3932 10.6009 21.93V25.738C10.6009 26.0903 10.7861 26.409 11.0892 26.5768L19.4926 31.3409V35.2328C19.4926 35.5851 19.6947 35.9206 20.0147 36.0884C20.1494 36.1555 20.3178 36.2058 20.4693 36.2058C20.6546 36.2058 20.8398 36.1555 21.0082 36.038L24.831 33.505C25.1005 33.3204 25.2689 33.0185 25.2689 32.6997V31.3409L33.6722 26.5768C33.9754 26.409 34.1606 26.0903 34.1606 25.738V21.9132C34.1606 21.3764 33.7227 20.9402 33.1839 20.9402H30.3378V20.3531H37.6297C38.1686 20.3531 38.6065 19.917 38.6065 19.3801V17.7026C40.4589 17.2665 41.7893 15.6057 41.7893 13.6933C41.7893 11.4119 39.9369 9.5498 37.6466 9.5498ZM39.8527 13.6933C39.8527 14.9011 38.8591 15.8909 37.6466 15.8909C36.4341 15.8909 35.4405 14.9011 35.4405 13.6933C35.4405 12.4855 36.4341 11.4957 37.6466 11.4957C38.8591 11.4957 39.8527 12.4687 39.8527 13.6933ZM20.9577 29.915L12.5544 25.1509V22.8862H32.224V25.1509L23.8206 29.915C23.5175 30.0828 23.3322 30.4015 23.3322 30.7538V32.1629L21.4629 33.4043V30.7538C21.4461 30.4015 21.2608 30.0828 20.9577 29.915ZM7.13175 11.4957C8.34426 11.4957 9.33784 12.4855 9.33784 13.6933C9.33784 14.9011 8.34426 15.8909 7.13175 15.8909C5.91924 15.8909 4.92565 14.9011 4.92565 13.6933C4.92565 12.4855 5.9024 11.4957 7.13175 11.4957ZM20.1831 13.6933C20.1831 12.4855 21.1766 11.4957 22.3892 11.4957C23.6017 11.4957 24.5952 12.4855 24.5952 13.6933C24.5952 14.9011 23.6017 15.8909 22.3892 15.8909C21.1598 15.8909 20.1831 14.9011 20.1831 13.6933Z" fill="#FB5607"/>
</svg>
