<svg width="33" height="32" viewBox="0 0 33 32" fill="none" xmlns="http://www.w3.org/2000/svg">
<path fill-rule="evenodd" clip-rule="evenodd" d="M3.04297 6.99915C3.04297 6.42846 3.52738 5.96582 4.12494 5.96582H28.8749C29.4725 5.96582 29.9569 6.42846 29.9569 6.99915V23.4679C29.9569 24.0044 29.7298 24.5155 29.3316 24.8896C28.934 25.2631 28.3984 25.47 27.8437 25.47H5.15619C4.60145 25.47 4.06589 25.2631 3.66826 24.8896C3.27003 24.5155 3.04297 24.0045 3.04297 23.4679V6.99915ZM5.2069 8.03249V23.4033H27.793V8.03249H5.2069Z" fill="#868695"/>
<path fill-rule="evenodd" clip-rule="evenodd" d="M3.32138 6.3072C3.72152 5.88336 4.40567 5.84956 4.84947 6.23172L16.4999 16.2641L28.1504 6.23172C28.5942 5.84956 29.2784 5.88336 29.6785 6.3072C30.0787 6.73105 30.0433 7.38445 29.5995 7.76661L17.2245 18.4229C16.8128 18.7774 16.1871 18.7774 15.7754 18.4229L3.40042 7.76661C2.95662 7.38445 2.92124 6.73105 3.32138 6.3072Z" fill="#868695"/>
</svg>
