<svg width="44" height="44" viewBox="0 0 44 44" fill="none" xmlns="http://www.w3.org/2000/svg">
<path d="M39.2155 5.08252H25.1358C24.7412 5.08252 24.3825 5.31673 24.2211 5.69508C24.0776 6.07343 24.1494 6.48781 24.4363 6.77607L28.2746 10.6316L18.6789 22.4324L17.6924 20.6848C17.531 20.3965 17.244 20.2164 16.9032 20.1984C16.5804 20.1623 16.2575 20.3065 16.0603 20.5767L4.20461 35.9628C3.63066 36.7015 3.7024 37.7104 4.34809 38.377C4.70681 38.7373 5.17315 38.9175 5.63948 38.9175C6.03407 38.9175 6.41073 38.7914 6.75151 38.5392L18.643 29.4048L19.8089 31.2965C19.9703 31.5488 20.2393 31.7289 20.5263 31.765C20.8312 31.801 21.1182 31.6929 21.3334 31.4767L35.0006 17.7481L38.4981 21.2613C38.7851 21.5496 39.1976 21.6217 39.5742 21.4775C39.9509 21.3154 40.1841 20.9551 40.1841 20.5587V6.07343C40.202 5.53293 39.7715 5.08252 39.2155 5.08252ZM38.2291 18.1625L35.718 15.6402C35.5387 15.46 35.2876 15.3519 35.0185 15.3519C34.7495 15.3519 34.4984 15.46 34.319 15.6402L20.8491 29.2066L19.7551 27.441C19.6116 27.2068 19.3605 27.0446 19.0914 26.9906C18.8224 26.9365 18.5354 27.0086 18.3202 27.1708L6.4466 36.2871L16.7059 22.9729L17.6565 24.6665C17.818 24.9547 18.1049 25.1349 18.4278 25.1709C18.7506 25.207 19.0735 25.0628 19.2708 24.8106L30.3372 11.1901C30.6601 10.7938 30.6242 10.2172 30.2655 9.85689L27.5034 7.06433H38.2291V18.1625Z" fill="#FFBE0B"/>
<path d="M15.0385 17.8202C16.3064 17.8202 17.3343 16.7878 17.3343 15.5141C17.3343 14.2405 16.3064 13.208 15.0385 13.208C13.7705 13.208 12.7427 14.2405 12.7427 15.5141C12.7427 16.7878 13.7705 17.8202 15.0385 17.8202Z" fill="#FFBE0B"/>
<path d="M17.711 13.9107C18.1953 13.9107 18.5899 13.5143 18.5899 13.0279C18.5899 12.5414 18.1953 12.1631 17.711 12.1631C17.2268 12.1631 16.8501 12.5594 16.8501 13.0459C16.8501 13.5323 17.2268 13.9107 17.711 13.9107Z" fill="#FFBE0B"/>
<path d="M29.7636 31.4589C31.0315 31.4589 32.0594 30.4264 32.0594 29.1528C32.0594 27.8792 31.0315 26.8467 29.7636 26.8467C28.4956 26.8467 27.4678 27.8792 27.4678 29.1528C27.4678 30.4264 28.4956 31.4589 29.7636 31.4589Z" fill="#FFBE0B"/>
<path d="M27.0914 30.7378C26.6071 30.7378 26.2305 31.1342 26.2305 31.6206C26.2305 32.107 26.6251 32.5034 27.0914 32.5034C27.5577 32.5034 27.9703 32.107 27.9703 31.6206C27.9703 31.1342 27.5577 30.7378 27.0914 30.7378Z" fill="#FFBE0B"/>
</svg>
