<svg width="34" height="34" viewBox="0 0 34 34" fill="none" xmlns="http://www.w3.org/2000/svg">
<path d="M24.6817 5.99512H8.98423C7.48873 5.99512 6.27295 7.1033 6.27295 8.7064V24.4038C6.27295 26.0069 7.48873 27.1151 8.98423 27.1151H24.6817C26.1772 27.1151 27.393 26.0069 27.393 24.4038V8.7064C27.393 7.1033 26.1772 5.99512 24.6817 5.99512ZM20.7116 9.29814C20.7116 8.77095 21.1419 8.35135 21.6584 8.35135H24.0469C24.5741 8.35135 24.9937 8.78171 24.9937 9.29814V11.5791C24.9937 12.1063 24.5633 12.5259 24.0469 12.5259H21.6584C21.1312 12.5259 20.7116 12.0955 20.7116 11.5791V9.29814ZM16.8598 12.4075C19.2053 12.4075 21.0989 14.2473 21.0989 16.5175C21.0989 18.7876 19.1946 20.6274 16.8598 20.6274C14.5144 20.6274 12.6208 18.7876 12.6208 16.5175C12.6208 14.2473 14.5144 12.4075 16.8598 12.4075ZM25.0044 23.8551C25.0044 24.3178 24.6279 24.6943 24.1652 24.6943H9.45762C8.99499 24.6943 8.61842 24.3178 8.61842 23.8551V14.9251H10.555C10.3829 15.4954 10.2861 16.1086 10.2861 16.7326C10.2861 20.2509 13.2233 23.0912 16.8491 23.0912C20.4749 23.0912 23.4121 20.2401 23.4121 16.7326C23.4121 16.1086 23.3153 15.4954 23.1431 14.9251H25.0044V23.8551V23.8551Z" fill="#868695"/>
</svg>
