<svg width="33" height="34" viewBox="0 0 33 34" fill="none" xmlns="http://www.w3.org/2000/svg">
<path d="M26.8639 26.9307L26.8746 19.2551C26.8746 15.497 26.0677 12.6094 21.6726 12.6094C19.56 12.6094 18.148 13.7665 17.5641 14.8706H17.5004V12.9491H13.3389V26.9201H17.6703V20.0089C17.6703 18.1829 18.0206 16.4206 20.2713 16.4206C22.4901 16.4206 22.5325 18.5014 22.5325 20.1257V26.9307H26.8639Z" fill="#868695"/>
<path d="M10.6321 12.9492H6.29004V26.9202H10.6321V12.9492Z" fill="#868695"/>
<path d="M8.45549 5.99512C7.06477 5.99512 5.93945 7.12044 5.93945 8.51116C5.93945 9.90189 7.06477 11.0484 8.45549 11.0484C9.84622 11.0484 10.9715 9.90189 10.9715 8.51116C10.9715 7.12044 9.84622 5.99512 8.45549 5.99512Z" fill="#868695"/>
</svg>
