<svg width="30" height="30" viewBox="0 0 30 30" fill="none" xmlns="http://www.w3.org/2000/svg">
<path d="M21.7533 13.9165L8.81049 5.87486C8.70147 5.80712 8.57668 5.77014 8.44894 5.76771C8.3212 5.76527 8.19513 5.79748 8.08369 5.86102C7.97226 5.92456 7.87949 6.01713 7.81491 6.12921C7.75034 6.24129 7.71631 6.36884 7.71631 6.49873V22.5819C7.71631 22.7118 7.75034 22.8394 7.81491 22.9514C7.87949 23.0635 7.97226 23.1561 8.08369 23.2196C8.19513 23.2832 8.3212 23.3154 8.44894 23.3129C8.57668 23.3105 8.70147 23.2735 8.81049 23.2058L21.7533 15.1642C21.8584 15.0989 21.9453 15.0072 22.0056 14.898C22.0658 14.7887 22.0975 14.6656 22.0975 14.5403C22.0975 14.4151 22.0658 14.2919 22.0056 14.1827C21.9453 14.0734 21.8584 13.9818 21.7533 13.9165Z" fill="white"/>
</svg>
