<svg width="45" height="45" viewBox="0 0 45 45" fill="none" xmlns="http://www.w3.org/2000/svg">
<path d="M35.5907 13.7148L29.1549 7.40553C28.9968 7.23159 28.7596 7.13672 28.5224 7.13672H12.267C10.3695 7.13672 8.81982 8.68636 8.81982 10.5839V35.1726C8.81982 37.0701 10.3695 38.6197 12.267 38.6197H32.4281C34.3256 38.6197 35.8753 37.0701 35.8753 35.1726V14.3789C35.8753 14.1259 35.7646 13.8887 35.5907 13.7148ZM29.4395 10.2518L32.6969 13.446H29.74C29.5818 13.446 29.4395 13.3195 29.4395 13.1455V10.2518ZM34.0252 35.1726C34.0252 36.0581 33.3136 36.7697 32.4281 36.7697H12.267C11.3815 36.7697 10.6699 36.0581 10.6699 35.1726V10.5839C10.6699 9.69837 11.3815 8.9868 12.267 8.9868H27.6053V13.1613C27.6053 14.3473 28.5698 15.2961 29.74 15.2961H34.0252V35.1726Z" fill="#FF006E"/>
<path d="M28.7438 21.7632H15.7457C15.2397 21.7632 14.8286 22.1743 14.8286 22.6803C14.8286 23.1863 15.2397 23.5975 15.7457 23.5975H28.7438C29.2498 23.5975 29.6609 23.1863 29.6609 22.6803C29.6609 22.1743 29.2498 21.7632 28.7438 21.7632Z" fill="#FF006E"/>
<path d="M15.7457 27.2976H26.3402C26.8462 27.2976 27.2574 26.8865 27.2574 26.3805C27.2574 25.8745 26.8462 25.4634 26.3402 25.4634H15.7457C15.2397 25.4634 14.8286 25.8745 14.8286 26.3805C14.8286 26.8865 15.2397 27.2976 15.7457 27.2976Z" fill="#FF006E"/>
<path d="M27.6211 29.1479H15.7457C15.2397 29.1479 14.8286 29.5591 14.8286 30.0651C14.8286 30.5711 15.2397 30.9822 15.7457 30.9822H27.6211C28.1271 30.9822 28.5382 30.5711 28.5382 30.0651C28.5382 29.5591 28.1271 29.1479 27.6211 29.1479Z" fill="#FF006E"/>
</svg>
