<svg width="140" height="167" viewBox="0 0 140 167" fill="none" xmlns="http://www.w3.org/2000/svg">
<path d="M29.3593 155.881V166.916H27.167V155.881H23.0776V153.894H33.4908V155.881H29.3593Z" fill="black"/>
<path d="M43.2721 161.968C43.2721 164.927 41.1641 166.999 38.1287 166.999C35.0511 166.999 32.9854 164.97 32.9854 161.968C32.9854 158.966 35.0933 156.937 38.1287 156.937C41.1641 156.937 43.2721 158.966 43.2721 161.968ZM35.1354 161.968C35.1354 163.87 36.358 165.181 38.1709 165.181C39.9415 165.181 41.1641 163.87 41.1641 161.968C41.1641 160.065 39.9415 158.755 38.1709 158.755C36.358 158.797 35.1354 160.065 35.1354 161.968Z" fill="black"/>
<path d="M51.0279 166.282C50.2691 166.747 49.4259 167 48.5827 167C47.1072 167 45.8424 166.155 45.8424 164.125V159.009H44.4512V157.403H45.8424V154.697H47.9503V157.403H50.8593V159.009H47.9925V163.745C47.9925 164.759 48.3719 165.098 49.0465 165.098C49.5102 165.098 49.974 164.929 50.522 164.675L51.0279 166.282Z" fill="black"/>
<path d="M58.9132 165.688C58.1965 166.576 57.0582 166.999 55.667 166.999C53.5169 166.999 52.21 165.689 52.21 163.913C52.21 162.095 53.559 160.953 55.9199 160.953H58.9132V160.657C58.9132 159.431 58.1122 158.67 56.5523 158.67C55.6248 158.67 54.613 159.008 53.6434 159.685L52.758 158.205C54.1493 157.359 55.1189 156.937 57.016 156.937C59.5456 156.937 60.979 158.247 60.979 160.403V166.872H58.871V165.688H58.9132ZM58.9132 163.405V162.475H56.2572C54.866 162.475 54.2336 162.856 54.2336 163.786C54.2336 164.674 54.9503 165.266 56.1307 165.266C57.6063 165.308 58.7867 164.505 58.9132 163.405Z" fill="black"/>
<path d="M63.9292 166.915V153.132H66.0793V166.915H63.9292Z" fill="black"/>
<path d="M80.4546 157.909L79.6957 159.473C78.8104 158.924 77.7143 158.586 76.8711 158.586C76.0279 158.586 75.4377 158.881 75.4377 159.558C75.4377 161.376 80.6654 160.404 80.6654 163.997C80.6654 166.027 78.8526 166.915 76.8711 166.915C75.4377 166.915 73.8779 166.45 72.9082 165.519L73.6671 163.997C74.5102 164.758 75.9015 165.224 76.9554 165.224C77.8829 165.224 78.5575 164.928 78.5575 164.167C78.5575 162.137 73.3719 163.279 73.3719 159.727C73.3719 157.74 75.1004 156.852 76.9976 156.852C78.2623 156.937 79.5693 157.275 80.4546 157.909Z" fill="black"/>
<path d="M88.6773 165.688C87.9606 166.576 86.8224 166.999 85.4311 166.999C83.281 166.999 81.9741 165.689 81.9741 163.913C81.9741 162.095 83.3232 160.953 85.6841 160.953H88.6773V160.657C88.6773 159.431 87.8763 158.67 86.3165 158.67C85.389 158.67 84.3772 159.008 83.4075 159.685L82.5222 158.205C83.9134 157.359 84.9252 156.937 86.7802 156.937C89.3097 156.937 90.7431 158.247 90.7431 160.403V166.872H88.6352V165.688H88.6773ZM88.6773 163.405V162.475H86.0213C84.6301 162.475 83.9977 162.856 83.9977 163.786C83.9977 164.674 84.7144 165.266 85.8949 165.266C87.3704 165.308 88.5509 164.505 88.6773 163.405Z" fill="black"/>
<path d="M93.6934 166.915V153.132H95.8434V166.915H93.6934Z" fill="black"/>
<path d="M107.731 162.771H100.269C100.606 164.293 101.787 165.223 103.347 165.223C104.401 165.223 105.413 164.8 106.129 164.082L107.268 165.308C106.298 166.365 104.907 166.999 103.178 166.999C100.143 166.999 98.1191 164.97 98.1191 162.01C98.1191 159.008 100.185 156.979 103.094 156.979C106.593 156.936 107.984 159.219 107.731 162.771ZM105.876 161.207C105.792 159.6 104.738 158.628 103.136 158.628C101.576 158.628 100.48 159.6 100.227 161.207H105.876Z" fill="black"/>
<path d="M116.333 157.909L115.574 159.473C114.689 158.924 113.593 158.586 112.75 158.586C111.906 158.586 111.316 158.881 111.316 159.558C111.316 161.376 116.544 160.404 116.544 163.997C116.544 166.027 114.731 166.915 112.75 166.915C111.316 166.915 109.756 166.45 108.787 165.519L109.545 163.997C110.389 164.758 111.78 165.224 112.834 165.224C113.761 165.224 114.436 164.928 114.436 164.167C114.436 162.137 109.25 163.279 109.25 159.727C109.25 157.74 110.979 156.852 112.876 156.852C114.141 156.937 115.448 157.275 116.333 157.909Z" fill="black"/>
<g opacity="0.2">
<path opacity="0.2" d="M69.9998 139.348C31.8463 139.348 0.775391 108.187 0.775391 69.9239C0.775391 31.6604 31.8463 0.5 69.9998 0.5C108.153 0.5 139.224 31.6604 139.224 69.9239C139.224 108.187 108.153 139.348 69.9998 139.348ZM69.9998 11.07C37.622 11.07 11.315 37.4528 11.315 69.9239C11.315 102.395 37.622 128.778 69.9998 128.778C102.378 128.778 128.685 102.395 128.685 69.9239C128.685 37.4528 102.335 11.07 69.9998 11.07Z" fill="#3A86FF"/>
</g>
<path d="M69.9998 139.348C31.8463 139.348 0.775391 108.187 0.775391 69.9239C0.775391 31.6604 31.8463 0.5 69.9998 0.5C75.4805 0.5 80.9611 1.1342 86.2731 2.44488C89.0977 3.12136 90.8262 5.99641 90.1517 8.82918C89.4771 11.6619 86.6103 13.3954 83.7857 12.7189C79.3169 11.6197 74.6373 11.07 69.9998 11.07C37.622 11.07 11.315 37.4528 11.315 69.9239C11.315 102.395 37.622 128.778 69.9998 128.778C102.378 128.778 128.685 102.395 128.685 69.9239C128.685 65.9073 128.263 61.933 127.504 58.0432C126.914 55.1681 128.769 52.3777 131.594 51.7857C134.418 51.1938 137.243 53.0541 137.833 55.8869C138.761 60.4532 139.224 65.1462 139.224 69.8816C139.224 108.187 108.153 139.348 69.9998 139.348Z" fill="#3A86FF"/>
<path d="M65.7414 57.7054C65.7414 61.5952 62.8746 65.7386 58.9539 69.7975L50.9016 78.2112H67.0061V85.1029H40.2354V79.4796L53.3889 65.5272C55.6233 63.2441 57.1832 60.665 57.1832 58.9315C57.1832 56.6484 55.4125 55.2954 52.4193 55.2954C49.426 55.2954 45.716 57.0712 42.512 59.8617L39.3501 53.7311C43.7768 50.3487 48.5828 48.3192 53.6419 48.3192C60.6824 48.2769 65.7414 51.9553 65.7414 57.7054Z" fill="#3A86FF"/>
<path d="M98.2042 57.9588C98.2042 61.1721 96.3492 64.0471 93.356 65.5692C97.4453 67.1759 100.059 70.6851 100.059 74.8285C100.059 81.3397 94.3678 85.4408 85.4723 85.4408C76.4925 85.4408 70.8433 81.382 70.8433 74.9131C70.8433 70.6851 73.5836 67.1759 77.9681 65.5269C74.764 63.878 72.7404 60.9607 72.7404 57.7051C72.7404 51.8705 77.7151 48.2344 85.4723 48.2344C93.2295 48.2767 98.2042 52.0396 98.2042 57.9588ZM78.6426 74.0675C78.6426 77.4076 81.0878 79.2257 85.5145 79.2257C89.8146 79.2257 92.3863 77.4076 92.3863 74.1098C92.3863 70.8965 89.899 69.0785 85.4723 69.0785C81.0878 69.0362 78.6426 70.8542 78.6426 74.0675ZM79.6123 58.4239C79.6123 61.2566 81.7202 62.8633 85.4723 62.8633C89.1401 62.8633 91.248 61.2566 91.248 58.4239C91.248 55.5488 89.1823 53.9422 85.4723 53.9422C81.7623 53.9422 79.6123 55.5488 79.6123 58.4239Z" fill="#3A86FF"/>
</svg>
