<svg width="45" height="45" viewBox="0 0 45 45" fill="none" xmlns="http://www.w3.org/2000/svg">
<path d="M38.6785 11.1536H37.3352V8.65427C37.3352 7.77014 36.9952 6.93702 36.3661 6.30792C35.7369 5.67883 34.9038 5.32178 34.0026 5.32178H22.8653C22.2022 5.32178 21.5731 5.57682 21.097 6.05289L4.45064 22.6983C3.82151 23.3274 3.48145 24.1606 3.48145 25.0447C3.48145 25.9288 3.82151 26.7619 4.45064 27.391L15.2478 38.1876C15.8769 38.8167 16.7101 39.1568 17.5943 39.1568C18.4785 39.1568 19.3116 38.8167 19.9408 38.1876L30.4149 27.7141C30.7549 27.374 30.7549 26.83 30.4149 26.4899C30.0748 26.1499 29.5307 26.1499 29.1906 26.4899L18.7165 36.9635C18.4104 37.2695 18.0194 37.4395 17.5773 37.4395C17.1352 37.4395 16.7441 37.2695 16.438 36.9635L5.64088 26.1669C5.33482 25.8608 5.16478 25.4698 5.16478 25.0277C5.16478 24.5856 5.33482 24.1946 5.64088 23.8885L22.2872 7.24306C22.4403 7.09004 22.6273 7.02203 22.8313 7.02203H33.9686C34.3937 7.02203 34.8017 7.19205 35.1078 7.4981C35.4139 7.80414 35.5839 8.1952 35.5839 8.63727V14.6562H32.4043C32.2342 14.6562 32.0642 14.6051 31.9112 14.5031C32.1662 14.3671 32.4043 14.1971 32.6083 13.9931C33.1354 13.466 33.4415 12.7519 33.4415 11.9868C33.4415 11.2216 33.1524 10.5245 32.6083 9.98047C32.0812 9.45339 31.367 9.14734 30.6019 9.14734C29.8367 9.14734 29.1396 9.43639 28.5955 9.98047C28.0684 10.5075 27.7623 11.2216 27.7623 11.9868C27.7623 12.7519 28.0514 13.449 28.5955 13.9931C28.9696 14.3671 29.4457 14.6392 29.9728 14.7582C30.3808 15.7273 31.35 16.3734 32.4043 16.3734H35.5839V19.7569C35.5839 19.9609 35.4989 20.165 35.3628 20.301L33.3564 22.3073C33.1864 22.4773 33.1014 22.6813 33.1014 22.9194C33.1014 23.1574 33.1864 23.3614 33.3564 23.5315C33.5265 23.7015 33.7305 23.7865 33.9686 23.7865C34.2066 23.7865 34.4107 23.7015 34.5807 23.5315L36.5871 21.5252C37.0632 21.0491 37.3182 20.42 37.3182 19.7569V16.3734H38.6615C40.1068 16.3734 41.28 15.2002 41.28 13.755C41.28 12.3098 40.1238 11.1536 38.6785 11.1536ZM39.5797 13.772C39.5797 14.2651 39.1716 14.6732 38.6785 14.6732H37.3352V12.8709H38.6785C39.1716 12.8709 39.5797 13.279 39.5797 13.772ZM31.5031 11.3237C30.7889 11.5957 30.2278 12.1738 29.9558 12.8879C29.9218 12.8539 29.8707 12.8199 29.8367 12.7859C29.6327 12.5818 29.5137 12.2928 29.5137 12.0038C29.5137 11.7147 29.6327 11.4257 29.8367 11.2216C30.0408 11.0176 30.3298 10.8986 30.6189 10.8986C30.908 10.8986 31.197 11.0176 31.4011 11.2216C31.4521 11.2557 31.4691 11.2897 31.5031 11.3237Z" fill="#3A86FF"/>
<path d="M20.2979 28.0542C20.723 28.0542 21.1311 27.8842 21.4372 27.5781C21.7432 27.2721 21.9133 26.881 21.9133 26.439C21.9133 26.0139 21.7432 25.6058 21.4372 25.2998C21.1311 24.9938 20.74 24.8237 20.2979 24.8237C19.8729 24.8237 19.4648 24.9938 19.1587 25.2998C18.8527 25.6058 18.6826 25.9969 18.6826 26.439C18.6826 26.881 18.8527 27.2721 19.1587 27.5781C19.4648 27.8842 19.8729 28.0542 20.2979 28.0542Z" fill="#3A86FF"/>
<path d="M21.7942 20.1651C22.4234 19.536 22.4234 18.5159 21.7942 17.9038C21.4882 17.5978 21.0971 17.4277 20.655 17.4277C20.2299 17.4277 19.8219 17.5978 19.5158 17.9038C18.8867 18.5329 18.8867 19.553 19.5158 20.1651C19.8219 20.4712 20.2299 20.6242 20.655 20.6242C21.0801 20.6242 21.4882 20.4712 21.7942 20.1651Z" fill="#3A86FF"/>
<path d="M11.252 22.9534C11.252 22.7323 11.167 22.5113 10.997 22.3413C10.6739 22.0182 10.1128 22.0182 9.77274 22.3413L7.68132 24.4326C7.52829 24.5856 7.42627 24.8066 7.42627 25.0447C7.42627 25.2827 7.51129 25.4867 7.68132 25.6568L16.9822 34.9571C17.1522 35.1272 17.3563 35.2122 17.5943 35.2122C17.8324 35.2122 18.0364 35.1272 18.2064 34.9571L32.1152 21.0491C32.4553 20.709 32.4553 20.1649 32.1152 19.8249L22.8144 10.5245C22.4913 10.2015 21.9132 10.2015 21.5901 10.5245L13.9216 18.1926C13.5815 18.5327 13.5815 19.0768 13.9216 19.4168C14.2616 19.7569 14.8058 19.7569 15.1458 19.4168L22.2022 12.3438L29.1056 19.2468L10.0278 24.5176L10.98 23.5654C11.15 23.4124 11.252 23.1914 11.252 22.9534ZM10.6229 26.1498L29.9048 20.828L17.6113 33.1209L10.6229 26.1498Z" fill="#3A86FF"/>
<path d="M31.2819 24.4156C31.1289 24.5686 31.0269 24.8066 31.0269 25.0277C31.0269 25.2487 31.1119 25.4697 31.2819 25.6398C31.4349 25.7928 31.656 25.8948 31.894 25.8948C32.1151 25.8948 32.3361 25.8098 32.5062 25.6398C32.6592 25.4867 32.7612 25.2487 32.7612 25.0277C32.7612 24.8066 32.6762 24.5856 32.5062 24.4156C32.1831 24.1095 31.605 24.1095 31.2819 24.4156Z" fill="#3A86FF"/>
<path d="M13.0716 21.4914C13.2246 21.3383 13.3266 21.1173 13.3266 20.8793C13.3266 20.6582 13.2416 20.4372 13.0716 20.2672C12.7485 19.9441 12.1704 19.9441 11.8473 20.2672C11.6943 20.4372 11.5923 20.6582 11.5923 20.8793C11.5923 21.1003 11.6773 21.3213 11.8473 21.4914C12.0004 21.6444 12.2384 21.7464 12.4595 21.7464C12.6805 21.7464 12.9015 21.6614 13.0716 21.4914Z" fill="#3A86FF"/>
</svg>
