<svg width="34" height="34" viewBox="0 0 34 34" fill="none" xmlns="http://www.w3.org/2000/svg">
<path d="M25.8576 11.7577L25.8687 12.3362C25.8687 18.277 21.3569 25.1412 13.1093 25.1412C10.5818 25.1412 8.22062 24.3958 6.23633 23.1053C6.57998 23.1498 6.93471 23.172 7.30053 23.172C9.40677 23.172 11.3356 22.4489 12.8654 21.2363C10.9033 21.2029 9.25157 19.9013 8.67512 18.1101C8.95226 18.1657 9.2294 18.188 9.51762 18.188C9.92778 18.188 10.3269 18.1324 10.6927 18.0322C8.64187 17.6206 7.10099 15.8072 7.10099 13.6267V13.5822C7.69961 13.9159 8.3869 14.1162 9.12963 14.1384C7.9324 13.3374 7.14534 11.9468 7.14534 10.4004C7.14534 9.57714 7.36704 8.79838 7.75503 8.13088C9.94995 10.8565 13.2645 12.6366 16.9892 12.8257C16.9116 12.5031 16.8784 12.1582 16.8784 11.8022C16.8784 9.32127 18.8737 7.30762 21.3569 7.30762C22.6428 7.30762 23.8179 7.85275 24.6382 8.72051C25.647 8.52026 26.6114 8.15313 27.4871 7.64137C27.1546 8.68713 26.4451 9.57714 25.5139 10.1334C26.4229 10.0221 27.2876 9.7774 28.0968 9.42139C27.4871 10.3225 26.7223 11.1235 25.8576 11.7577Z" fill="white"/>
</svg>
