<svg width="126" height="42" viewBox="0 0 126 42" fill="none" xmlns="http://www.w3.org/2000/svg">
<path d="M60.5959 17.2504L59.4005 19.5843C58.0912 18.8443 56.7251 18.4174 55.7289 18.4174C54.932 18.4174 54.3343 18.6735 54.3343 19.2997C54.3343 21.1213 60.6813 20.182 60.6528 24.4513C60.6528 26.899 58.4897 28.2083 55.7574 28.2083C53.8219 28.2083 51.915 27.6391 50.5488 26.529L51.6588 24.1952C52.9112 25.1629 54.5335 25.7036 55.8427 25.7036C56.7251 25.7036 57.3512 25.419 57.3512 24.7644C57.3512 22.829 51.1181 23.8821 51.1181 19.6413C51.1181 17.1651 53.2527 15.8843 55.8712 15.8843C57.5505 15.9127 59.2582 16.3966 60.5959 17.2504Z" fill="white"/>
<path d="M75.1398 20.5519V28.1227H71.6959V21.5765C71.6959 20.068 70.8136 19.1288 69.3336 19.1288C67.6259 19.1572 66.5728 20.438 66.5728 22.2027V28.1227H63.1289V11.501H66.5728V18.1895C67.4267 16.681 68.8498 15.941 70.7282 15.941C73.4037 15.941 75.1398 17.7341 75.1398 20.5519Z" fill="white"/>
<path d="M89.9406 22.09C89.9406 25.7616 87.3506 28.2378 83.5082 28.2378C79.6374 28.2378 77.0474 25.7616 77.0474 22.09C77.0474 18.39 79.6374 15.9707 83.5082 15.9707C87.3506 15.9707 89.9406 18.39 89.9406 22.09ZM80.4913 22.1469C80.4913 24.1108 81.6867 25.4485 83.4798 25.4485C85.2444 25.4485 86.4683 24.1108 86.4683 22.1469C86.4683 20.1831 85.2444 18.8454 83.4798 18.8454C81.7151 18.8169 80.4913 20.1546 80.4913 22.1469Z" fill="white"/>
<path d="M105.225 22.1469C105.225 25.7901 103.005 28.2378 99.6467 28.2378C97.9675 28.2378 96.6583 27.5547 95.7759 26.3593V32.4502H92.332V16.0846H95.7759V17.8492C96.6298 16.6538 97.939 15.9707 99.5898 15.9707C102.948 15.9707 105.225 18.4469 105.225 22.1469ZM101.753 22.0331C101.753 20.0977 100.558 18.7315 98.7644 18.7315C96.9998 18.7315 95.7759 20.0977 95.7759 22.0331C95.7759 24.0254 96.9998 25.3631 98.7644 25.3631C100.529 25.3916 101.753 24.0254 101.753 22.0331Z" fill="white"/>
<path d="M111.088 12.6405C111.088 13.7505 110.319 14.5759 109.238 14.5759C108.156 14.5759 107.388 13.779 107.388 12.6405C107.388 11.5305 108.156 10.7051 109.238 10.7051C110.319 10.7335 111.088 11.5305 111.088 12.6405ZM107.502 28.0953V16.0844H110.945V28.1238H107.502V28.0953Z" fill="white"/>
<path d="M120.082 29.4621C119.228 31.5967 117.748 32.6213 115.67 32.6213C114.389 32.6213 113.393 32.2513 112.397 31.4544L113.849 28.9782C114.389 29.4336 114.845 29.6328 115.414 29.6328C116.126 29.6328 116.666 29.2628 117.008 28.5513L117.349 27.8682L112.369 16.085H115.926L119.086 24.3674L121.932 16.085H125.376L120.082 29.4621Z" fill="white"/>
<path opacity="0.8" d="M30.6544 32.1647C36.2975 32.1647 40.8722 27.59 40.8722 21.9468C40.8722 16.3037 36.2975 11.729 30.6544 11.729C25.0112 11.729 20.4365 16.3037 20.4365 21.9468C20.4365 27.59 25.0112 32.1647 30.6544 32.1647Z" fill="#8338EC"/>
<path opacity="0.8" d="M10.2178 32.1647C15.861 32.1647 20.4357 27.59 20.4357 21.9468C20.4357 16.3037 15.861 11.729 10.2178 11.729C4.57468 11.729 0 16.3037 0 21.9468C0 27.59 4.57468 32.1647 10.2178 32.1647Z" fill="#3A86FF"/>
<path opacity="0.8" d="M20.4351 21.3771C26.0783 21.3771 30.653 16.8024 30.653 11.1592C30.653 5.51609 26.0783 0.941406 20.4351 0.941406C14.792 0.941406 10.2173 5.51609 10.2173 11.1592C10.2173 16.8024 14.792 21.3771 20.4351 21.3771Z" fill="#FFBE0B"/>
<path opacity="0.8" d="M20.4351 41.6696C26.0783 41.6696 30.653 37.0949 30.653 31.4517C30.653 25.8086 26.0783 21.2339 20.4351 21.2339C14.792 21.2339 10.2173 25.8086 10.2173 31.4517C10.2173 37.0949 14.792 41.6696 20.4351 41.6696Z" fill="#FB5607"/>
</svg>
