<svg width="58" height="78" viewBox="0 0 58 78" fill="none" xmlns="http://www.w3.org/2000/svg">
<path d="M3.89078 77.8138C1.75843 77.8138 0.027832 76.0832 0.027832 73.9509V9.87223C0.027832 7.73988 1.75843 6.00928 3.89078 6.00928H11.5085V9.09964H46.4914V6.00928H54.1092C56.2415 6.00928 57.9721 7.73988 57.9721 9.87223V73.9663C57.9721 76.0987 56.2415 77.8293 54.1092 77.8293H3.89078V77.8138Z" fill="#8338EC"/>
<path d="M17.7666 41.3169C24.1669 41.3169 29.3554 36.1284 29.3554 29.728C29.3554 23.3277 24.1669 18.1392 17.7666 18.1392C11.3662 18.1392 6.17773 23.3277 6.17773 29.728C6.17773 36.1284 11.3662 41.3169 17.7666 41.3169Z" fill="#BF8F08"/>
<path d="M10.0407 29.7282C10.0407 24.0729 14.12 19.2519 19.6981 18.3093C13.3938 17.2432 7.39847 21.4924 6.3323 27.7968C5.26612 34.1011 9.51537 40.0964 15.8197 41.1626C17.1022 41.3789 18.4156 41.3789 19.6981 41.1626C14.12 40.22 10.0407 35.3836 10.0407 29.7282Z" fill="#FFBE0B"/>
<path d="M13.0076 0.910645H44.9774C45.8118 0.910645 46.4762 1.59052 46.4762 2.40947V9.22372C46.4762 10.2435 45.6418 11.0779 44.622 11.0779H13.363C12.3432 11.0779 11.5088 10.2435 11.5088 9.22372V2.40947C11.5088 1.59052 12.1732 0.910645 13.0076 0.910645Z" fill="#CFCFD5"/>
<path d="M48.4229 39.355H39.9553C39.3217 39.355 38.7964 39.8803 38.7964 40.5139C38.7964 41.1474 39.3217 41.6728 39.9553 41.6728H48.4229C49.0564 41.6728 49.5817 41.1474 49.5817 40.5139C49.5817 39.8803 49.0564 39.355 48.4229 39.355Z" fill="#FFBE0B"/>
<path d="M32.1057 41.6728H34.9488C35.5823 41.6728 36.1077 41.1474 36.1077 40.5139C36.1077 39.8803 35.5823 39.355 34.9488 39.355H32.1057C31.4721 39.355 30.9468 39.8803 30.9468 40.5139C30.9468 41.1474 31.4721 41.6728 32.1057 41.6728Z" fill="#FFBE0B"/>
<path d="M48.4231 51.8862H45.549C44.9155 51.8862 44.3901 52.4116 44.3901 53.0451C44.3901 53.6786 44.9155 54.204 45.549 54.204H48.4231C49.0566 54.204 49.5819 53.6786 49.5819 53.0451C49.5819 52.4116 49.0566 51.8862 48.4231 51.8862Z" fill="#FFBE0B"/>
<path d="M41.5318 54.204C42.1654 54.204 42.6907 53.6786 42.6907 53.0451C42.6907 52.4116 42.1654 51.8862 41.5318 51.8862H26.1882C25.5547 51.8862 25.0293 52.4116 25.0293 53.0451C25.0293 53.6786 25.5547 54.204 26.1882 54.204H41.5318Z" fill="#FFBE0B"/>
<path d="M22.1238 51.8862H21.0886C20.455 51.8862 19.9297 52.4116 19.9297 53.0451C19.9297 53.6786 20.455 54.204 21.0886 54.204H22.1238C22.7574 54.204 23.2827 53.6786 23.2827 53.0451C23.2827 52.4116 22.7574 51.8862 22.1238 51.8862Z" fill="#FFBE0B"/>
<path d="M9.53047 51.8862C8.89694 51.8862 8.37158 52.4116 8.37158 53.0451C8.37158 53.6786 8.89694 54.204 9.53047 54.204H16.0975C16.731 54.204 17.2564 53.6786 17.2564 53.0451C17.2564 52.4116 16.731 51.8862 16.0975 51.8862H9.53047Z" fill="#FFBE0B"/>
<path d="M48.4225 63.4751H41.7937C41.1601 63.4751 40.6348 64.0005 40.6348 64.634C40.6348 65.2675 41.1601 65.7929 41.7937 65.7929H48.4225C49.056 65.7929 49.5814 65.2675 49.5814 64.634C49.5814 64.0005 49.056 63.4751 48.4225 63.4751Z" fill="#FFBE0B"/>
<path d="M37.6219 63.4751H36.8029C36.1694 63.4751 35.644 64.0005 35.644 64.634C35.644 65.2675 36.1694 65.7929 36.8029 65.7929H37.6373C38.2709 65.7929 38.7962 65.2675 38.7962 64.634C38.7962 64.0005 38.2709 63.4751 37.6219 63.4751Z" fill="#FFBE0B"/>
<path d="M33.5277 63.4751H27.2233C26.5898 63.4751 26.0645 64.0005 26.0645 64.634C26.0645 65.2675 26.5898 65.7929 27.2233 65.7929H33.5277C34.1612 65.7929 34.6866 65.2675 34.6866 64.634C34.6866 64.0005 34.1767 63.4751 33.5277 63.4751Z" fill="#FFBE0B"/>
<path d="M22.1237 63.4751H9.53047C8.89694 63.4751 8.37158 64.0005 8.37158 64.634C8.37158 65.2675 8.89694 65.7929 9.53047 65.7929H22.1237C22.7572 65.7929 23.2826 65.2675 23.2826 64.634C23.2826 64.0005 22.7572 63.4751 22.1237 63.4751Z" fill="#FFBE0B"/>
<path d="M48.4225 29.481H47.6809C47.0473 29.481 46.522 30.0063 46.522 30.6398C46.522 31.2734 47.0473 31.7987 47.6809 31.7987H48.4225C49.0561 31.7987 49.5814 31.2734 49.5814 30.6398C49.5814 30.0063 49.0561 29.481 48.4225 29.481Z" fill="#FFBE0B"/>
<path d="M34.4699 31.7987H42.6903C43.3238 31.7987 43.8492 31.2734 43.8492 30.6398C43.8492 30.0063 43.3238 29.481 42.6903 29.481H34.4699C33.8364 29.481 33.311 30.0063 33.311 30.6398C33.311 31.2734 33.8209 31.7987 34.4699 31.7987Z" fill="#FFBE0B"/>
<path d="M48.423 19.8237H40.1408C39.5073 19.8237 38.9819 20.3491 38.9819 20.9826C38.9819 21.6161 39.5073 22.1415 40.1408 22.1415H48.423C49.0565 22.1415 49.5819 21.6161 49.5819 20.9826C49.5819 20.3491 49.0565 19.8237 48.423 19.8237Z" fill="#FFBE0B"/>
<path d="M34.4699 22.1415H35.1498C35.7833 22.1415 36.3087 21.6161 36.3087 20.9826C36.3087 20.3491 35.7833 19.8237 35.1498 19.8237H34.4699C33.8364 19.8237 33.311 20.3491 33.311 20.9826C33.311 21.6161 33.8209 22.1415 34.4699 22.1415Z" fill="#FFBE0B"/>
<path d="M17.7663 42.4916C24.8123 42.4916 30.514 36.7899 30.514 29.7438C30.514 22.6978 24.8123 16.9961 17.7663 16.9961C10.7203 16.9961 5.01855 22.6978 5.01855 29.7438C5.01855 36.7744 10.7357 42.4761 17.7663 42.4916ZM17.7663 19.3139C23.5298 19.3139 28.1963 23.9803 28.1963 29.7438C28.1963 35.5074 23.5298 40.1738 17.7663 40.1738C12.0028 40.1738 7.33633 35.5074 7.33633 29.7438C7.33633 23.9803 12.0028 19.3139 17.7663 19.3139Z" fill="#284268"/>
<path d="M15.0931 33.6992C15.4485 34.0546 16.0202 34.0546 16.3756 33.6992L23.0199 27.0549C23.3753 26.6995 23.3598 26.1278 23.0045 25.7724C22.6491 25.417 22.0773 25.417 21.7374 25.7724L15.7421 31.7677L13.7952 29.8208C13.4398 29.4654 12.8681 29.4499 12.5127 29.8053C12.1573 30.1607 12.1418 30.7324 12.4972 31.0878L12.5127 31.1033L15.0931 33.6992Z" fill="#284268"/>
</svg>
